<svg xmlns="http://www.w3.org/2000/svg" width="555" height="181" viewBox="0 0 555 181" fill="none"><path d="M307.269 27.0636V147.143C307.269 151.209 306.391 154.838 304.639 157.887C302.883 160.968 300.361 163.595 297.123 165.69C293.827 167.815 289.834 169.454 285.268 170.548C280.821 171.61 275.893 172.171 270.479 172.217H270.025L269.632 172.171C261.8 171.869 250.881 169.864 243.307 162.08C241.159 159.865 239.527 157.253 237.894 154.644C237.305 153.717 236.746 152.839 236.169 151.958C233.205 147.541 230.44 143.201 227.914 139.058C225.48 135.065 223.12 131.089 220.883 127.235C220.552 126.659 220.187 125.991 219.809 125.276C217.934 121.755 215.258 116.701 211.462 116.701C210.78 116.701 210.041 116.882 209.271 117.261C208.304 117.733 207.623 118.521 207.291 119.553C206.61 121.725 207.715 124.454 208.743 126.351C209.452 127.657 210.36 129.219 211.542 131.132L226.693 155.947C227.282 156.933 227.598 158.041 227.598 159.193V159.511C227.598 161.695 226.45 163.746 224.56 164.837C224.302 164.988 224.059 165.142 223.789 165.293L223.547 165.428C221.641 166.522 219.269 167.553 216.455 168.539C213.656 169.509 210.345 170.36 206.598 171.043C202.893 171.727 198.569 172.075 193.745 172.075C188.258 172.075 183.115 171.515 178.475 170.406C173.923 169.312 169.931 167.674 166.619 165.548C163.397 163.469 160.875 160.845 159.104 157.761C157.364 154.696 156.474 151.068 156.474 147.002V25.2123C156.474 21.1309 157.367 17.5177 159.104 14.4528C160.872 11.3725 163.397 8.745 166.635 6.66579C169.931 4.52498 173.923 2.90165 178.475 1.80814C182.528 0.837844 186.957 0.289549 191.661 0.169417C191.723 0.169417 191.766 0.169417 191.827 0.154015L191.932 0.138614L192.613 0.154015H192.914C192.975 0.154015 193.033 0.154015 193.095 0.138614L193.352 0.169417C198.447 0.308031 202.789 0.957976 206.659 2.15622C213.008 4.14302 218.499 8.56018 223.065 15.42C225.379 18.8792 227.782 22.6434 230.219 26.62C231.458 28.6222 234.346 33.6031 236.691 37.6383C239.655 42.7393 242.209 47.1534 242.921 48.2161C246.579 53.7237 249.347 55.1375 252.431 53.0737C255.426 51.0869 253.171 46.5034 252.431 45.0002C251.645 43.4077 250.752 41.8583 250.148 40.8572L237.796 19.2766C236.798 17.5608 236.283 15.6018 236.283 13.615C236.283 11.6282 237.234 9.86623 238.839 8.78812C240.14 7.90716 241.515 7.08779 242.951 6.36084C245.673 4.95006 248.592 3.76414 251.615 2.82464C254.638 1.90055 257.799 1.18592 261.006 0.69923C264.225 0.227943 267.401 0 270.412 0C275.144 0 279.848 0.455886 284.369 1.35226C288.8 2.23322 292.774 3.73334 296.193 5.82795C299.535 7.86095 302.257 10.6394 304.267 14.0678C306.265 17.4838 307.278 21.8548 307.278 27.0605L307.269 27.0636Z" fill="#EE8788"></path><path d="M69.6341 72.4889C68.2286 76.4964 67.5166 81.3078 67.5166 86.7877L67.5319 87.2128L67.5166 87.7272C67.5166 93.2071 68.2255 98.0031 69.6341 102.007C71.0243 106.058 72.9147 109.474 75.2594 112.191C77.6347 114.954 80.415 117.033 83.53 118.382C86.6449 119.735 89.8948 120.4 93.2214 120.4C95.3819 120.4 96.8059 119.975 97.7419 119.035C98.7086 118.05 99.5863 116.198 98.8927 114.239C98.4078 112.887 97.0636 111.19 93.4025 110.796C91.9969 110.645 90.5607 110.235 88.9864 109.505C86.8842 108.55 84.9938 107.078 83.3458 105.119C81.6978 103.16 80.3813 100.643 79.4299 97.6211C78.4786 94.661 77.9784 91.171 77.963 87.2559C77.9784 83.3408 78.4786 79.8477 79.4299 76.8598C80.3813 73.8535 81.6978 71.3338 83.3458 69.3778C84.9785 67.4187 86.8842 65.9494 88.9864 64.9914C90.3029 64.3846 91.5121 64.0057 92.6905 63.7932L141.258 63.5806C144.343 63.5806 146.853 66.1003 146.853 69.196V147.146C146.853 151.212 145.975 154.841 144.223 157.89C142.468 160.971 139.945 163.598 136.707 165.693C133.396 167.818 129.419 169.457 124.852 170.551C120.209 171.659 115.069 172.22 109.597 172.22H89.9991C82.1367 172.22 74.3356 171.493 66.8046 170.052C60.9523 168.927 55.2994 167.304 49.9596 165.24C49.7172 165.148 49.4011 165.012 49.0512 164.877C45.5128 163.389 41.3699 164.042 38.4974 166.515C34.023 170.43 28.2597 172.463 22.303 172.208C10.4173 171.706 0.633726 161.993 0.0291592 150.079C-0.259314 144.251 1.60042 138.558 5.26158 134.083C7.59085 131.215 8.18007 127.285 6.75918 123.838C5.45798 120.634 4.31023 117.267 3.37116 113.79C1.13702 105.633 0.0199526 96.3459 0.0199526 86.1778C0.0199526 71.9283 2.21419 59.299 6.53823 48.6442C6.53823 48.6288 6.55357 48.6134 6.55357 48.598V48.5826C7.97445 45.0926 7.44661 41.1621 5.14803 38.2944C1.56052 33.831 -0.253176 28.1848 0.0475724 22.4185C0.655208 10.5962 10.3774 0.899407 22.1557 0.33571C27.9773 0.0461612 33.6486 1.94363 38.1077 5.66465C40.9187 7.9872 44.807 8.59402 48.238 7.22636C49.6896 6.65035 51.1565 6.11745 52.6234 5.61844C63.435 1.98984 75.5171 0.153972 88.5659 0.13857L108.753 0.123169C108.83 0.13857 108.903 0.13857 108.98 0.13857L109.6 0.123169C115.072 0.123169 120.215 0.699187 124.855 1.8081C129.422 2.90161 133.399 4.52493 136.71 6.66575C139.945 8.74496 142.471 11.3694 144.226 14.4528C145.981 17.5177 146.856 21.1309 146.856 25.2123V48.4933C146.856 51.5736 144.346 54.0779 141.231 54.0779H92.2701C92.1934 54.0779 92.0737 54.1087 91.954 54.1241C89.0662 54.275 86.2244 54.9434 83.533 56.1109C80.4335 57.4631 77.6347 59.5423 75.2624 62.3023C72.9178 65.0191 71.0304 68.4506 69.6372 72.4858L69.6341 72.4889Z" fill="#EE8788"></path><path d="M330.135 80.8493V11.8473C330.135 7.4332 333.146 4.76257 338.237 4.76257C343.328 4.76257 346.339 7.4332 346.339 11.8473V75.508H351.43C355.251 75.508 357.911 78.4128 357.911 83.0579C357.911 87.703 355.134 90.6077 351.083 90.6077H339.857C333.606 90.6077 330.135 87.1239 330.135 80.8493Z" fill="#EE8788"></path><path d="M366.243 73.53V11.6127C366.243 7.42966 369.02 4.75903 373.998 4.75903C378.976 4.75903 381.867 7.42966 381.867 11.6127V73.6471C381.867 76.4348 383.14 77.9441 385.571 77.9441H386.264C388.578 77.9441 389.968 76.4348 389.968 73.6471V11.6127C389.968 7.42966 392.862 4.75903 397.837 4.75903C402.812 4.75903 405.709 7.42966 405.709 11.6127V73.53C405.709 85.2629 399.457 91.0724 387.538 91.0724H384.181C372.375 91.0724 366.243 85.2629 366.243 73.53Z" fill="#EE8788"></path><path d="M416.121 84.1017V11.7298C416.121 7.43274 419.015 4.75903 424.107 4.75903C428.274 4.75903 430.935 6.61646 431.862 9.63824C433.712 7.78082 438.226 4.75903 444.478 4.75903C452.116 4.75903 456.05 8.47697 456.05 19.2796V84.1017C456.05 88.3987 453.04 91.0724 448.065 91.0724C443.091 91.0724 440.08 88.4018 440.08 84.1017V23.1146C440.08 19.6308 438.576 17.8873 436.259 17.8873C434.522 17.8873 433.019 18.8176 432.092 20.2099V84.1017C432.092 88.3987 429.081 91.0724 424.107 91.0724C419.132 91.0724 416.121 88.4018 416.121 84.1017Z" fill="#EE8788"></path><path d="M466.236 73.53V22.1843C466.236 10.6825 472.371 4.75903 484.174 4.75903H487.184C498.99 4.75903 505.008 10.6825 505.008 22.1843V27.8768C505.008 31.9428 502.231 34.8475 497.253 34.8475C492.275 34.8475 489.385 31.9428 489.385 27.8768V22.3014C489.385 19.6308 488.111 17.8873 485.797 17.8873H485.45C483.136 17.8873 481.979 19.6308 481.979 22.3014V73.6471C481.979 76.4348 483.136 77.9441 485.45 77.9441H485.797C488.111 77.9441 489.385 76.4348 489.385 73.6471V65.167C489.385 60.9839 492.279 58.1962 497.253 58.1962C502.228 58.1962 505.008 60.9839 505.008 65.167V73.53C505.008 85.2629 498.99 91.0724 487.184 91.0724H484.174C472.368 91.0724 466.236 85.2629 466.236 73.53Z" fill="#EE8788"></path><path d="M514.724 84.1015V11.8467C514.724 7.43259 517.735 4.76196 522.826 4.76196C527.917 4.76196 530.928 7.43259 530.928 11.8467V37.8691H538.913V11.8467C538.913 7.43259 541.924 4.76196 547.015 4.76196C552.106 4.76196 555 7.43259 555 11.8467V84.1015C555 88.3985 552.106 91.0722 547.015 91.0722C541.924 91.0722 538.913 88.4016 538.913 84.1015V51.4595H530.928V84.1015C530.928 88.3985 527.917 91.0722 522.826 91.0722C517.735 91.0722 514.724 88.4016 514.724 84.1015Z" fill="#EE8788"></path><path d="M356.018 169.229C352.62 169.229 350.036 167.877 348.821 165.582C346.596 167.492 343.131 169.229 338.909 169.229C334.686 169.229 327.284 167.424 327.284 155.34V149.278C327.284 140.4 333.204 134.884 342.733 134.884C344.964 134.884 346.707 135.182 348.017 135.555V120.791C348.017 119.83 347.787 118.216 346.256 118.216H345.651C344.12 118.216 343.889 119.83 343.889 120.791V125.538C343.889 129.804 340.827 132.558 336.091 132.558C331.356 132.558 328.192 129.869 328.192 125.538V119.781C328.192 109.834 333.916 104.579 344.746 104.579H347.664C358.43 104.579 364.119 110.22 364.119 120.893V162.107C364.119 166.5 361.014 169.229 356.018 169.229ZM350.224 160.136L350.623 163.047C350.942 165.372 352.909 166.703 356.018 166.703C358.565 166.703 361.603 165.905 361.603 162.107V120.893C361.603 111.615 357.043 107.105 347.664 107.105H344.746C335.3 107.105 330.706 111.251 330.706 119.784V125.541C330.706 129.453 334.078 130.035 336.088 130.035C339.446 130.035 341.373 128.396 341.373 125.541V120.794C341.373 117.695 343.052 115.693 345.651 115.693H346.256C348.855 115.693 350.534 117.695 350.534 120.794V139.335L348.747 138.509C347.667 138.01 345.749 137.412 342.733 137.412C334.634 137.412 329.8 141.848 329.8 149.281V155.343C329.8 162.884 332.863 166.706 338.909 166.706C343.395 166.706 346.82 164.405 348.391 162.434L350.221 160.139L350.224 160.136ZM345.651 158.827C342.72 158.827 340.971 156.655 340.971 153.017V149.885C340.971 146.247 342.984 144.075 346.354 144.075C347.811 144.075 349.002 144.334 349.895 144.848L350.527 145.212V155.823L350.316 156.141C349.232 157.77 347.4 158.824 345.645 158.824L345.651 158.827ZM346.357 146.604C345.022 146.604 343.487 146.977 343.487 149.888V153.02C343.487 156.304 345.117 156.304 345.651 156.304C346.473 156.304 347.388 155.805 348.017 155.032V146.795C347.563 146.672 346.995 146.607 346.357 146.607V146.604Z" fill="#EE8788"></path><path d="M381.277 179.634C376.355 179.634 373.176 176.76 373.176 172.309V111.803C373.176 107.416 376.355 104.579 381.277 104.579C384.623 104.579 387.176 105.882 388.446 108.153C390.389 106.64 393.897 104.579 398.586 104.579C406.485 104.579 410.008 108.926 410.008 118.672V152.712C410.008 163.672 405.251 169.229 395.87 169.229C393.424 169.229 391.251 168.758 389.379 167.824V172.309C389.379 176.757 386.2 179.634 381.277 179.634ZM381.277 107.108C377.727 107.108 375.692 108.821 375.692 111.806V172.312C375.692 175.316 377.779 177.112 381.277 177.112C384.776 177.112 386.863 175.319 386.863 172.312V162.945L388.897 164.55C390.711 165.979 393.056 166.703 395.87 166.703C403.8 166.703 407.495 162.258 407.495 152.712V118.672C407.495 109.074 403.935 107.105 398.589 107.105C394.372 107.105 390.773 109.209 388.812 111.181L387.191 112.807L386.694 110.561C386.2 108.334 384.279 107.105 381.281 107.105L381.277 107.108ZM390.837 158.017C389.444 158.017 388.195 157.505 387.231 156.535L386.863 156.165V118.857L387.114 118.521C388.314 116.916 390.002 115.995 391.742 115.995C393.12 115.995 396.321 116.562 396.321 121.805V150.796C396.321 157.314 392.485 158.02 390.837 158.02V158.017ZM389.379 155.063C389.797 155.352 390.278 155.494 390.837 155.494C391.57 155.494 393.805 155.494 393.805 150.796V121.805C393.805 118.521 392.307 118.521 391.742 118.521C390.905 118.521 390.061 118.955 389.376 119.725V155.06L389.379 155.063Z" fill="#EE8788"></path><path d="M426.767 179.634C421.845 179.634 418.665 176.76 418.665 172.309V111.803C418.665 107.416 421.845 104.579 426.767 104.579C430.112 104.579 432.666 105.882 433.936 108.153C435.879 106.64 439.386 104.579 444.076 104.579C451.975 104.579 455.498 108.926 455.498 118.672V152.712C455.498 163.672 450.741 169.229 441.36 169.229C438.914 169.229 436.741 168.758 434.869 167.824V172.309C434.869 176.757 431.69 179.634 426.767 179.634ZM426.767 107.108C423.217 107.108 421.182 108.821 421.182 111.806V172.312C421.182 175.316 423.269 177.112 426.767 177.112C430.266 177.112 432.353 175.319 432.353 172.312V162.945L434.387 164.55C436.201 165.979 438.546 166.703 441.36 166.703C449.29 166.703 452.985 162.258 452.985 152.712V118.672C452.985 109.074 449.425 107.105 444.079 107.105C439.862 107.105 436.262 109.209 434.301 111.181L432.681 112.807L432.184 110.561C431.69 108.334 429.769 107.105 426.77 107.105L426.767 107.108ZM436.327 158.017C434.933 158.017 433.684 157.505 432.721 156.535L432.353 156.165V118.857L432.604 118.521C433.804 116.916 435.492 115.995 437.232 115.995C438.61 115.995 441.811 116.562 441.811 121.805V150.796C441.811 157.314 437.975 158.02 436.327 158.02V158.017ZM434.866 155.063C435.283 155.352 435.765 155.494 436.324 155.494C437.057 155.494 439.291 155.494 439.291 150.796V121.805C439.291 118.521 437.794 118.521 437.229 118.521C436.391 118.521 435.547 118.955 434.863 119.725V155.06L434.866 155.063Z" fill="#EE8788"></path><path d="M548.942 160.632C548.374 143.82 530.918 127.586 513.757 131.966C496.498 136.076 485.26 156.147 495.513 171.693C498.867 176.603 505.419 182.841 511.572 179.976C516.025 178.069 518.557 173.717 522.498 171.702C524.541 171.034 526.281 171.829 528.439 172.359C530.412 172.913 533.226 173.618 535.645 173.535C542.387 173.427 549.224 168.132 548.942 160.675V160.635V160.632Z" fill="#EE8788"></path><path d="M542.473 135.989C545.256 136.565 547.969 134.215 549.212 131.261C550.056 129.308 550.335 126.992 549.973 124.842C549.626 122.716 548.654 120.745 547.236 119.374C545.244 117.446 542.378 116.691 540.082 117.997C538.388 118.983 537.323 120.902 536.829 123.074C535.62 128.067 537.897 134.97 542.457 135.986H542.473V135.989Z" fill="#EE8788"></path><path d="M478.241 143.444C475.762 144.303 474.454 147.152 474.571 149.749C474.629 151.477 475.286 153.199 476.397 154.517C477.489 155.827 479.03 156.745 480.702 157.049C483.053 157.481 485.668 156.704 487.034 154.764C488.034 153.319 488.166 151.514 487.742 149.795C486.822 145.806 482.344 142.079 478.257 143.438H478.244L478.241 143.444Z" fill="#EE8788"></path><path d="M524.698 105.772C521.362 105.325 518.336 108.273 517.096 111.806C516.252 114.144 516.099 116.858 516.694 119.328C517.271 121.771 518.576 123.985 520.359 125.464C522.863 127.546 526.312 128.196 528.927 126.493C530.854 125.211 531.962 122.895 532.379 120.332C533.42 114.43 530.188 106.588 524.716 105.772H524.701H524.698Z" fill="#EE8788"></path><path d="M484.913 119.904C481.565 120.243 479.297 123.813 478.901 127.537C478.616 130.007 479.091 132.684 480.239 134.951C481.362 137.194 483.139 139.048 485.214 140.074C488.129 141.522 491.637 141.352 493.788 139.091C495.369 137.4 495.915 134.89 495.731 132.299C495.387 126.317 490.44 119.433 484.928 119.907H484.91L484.913 119.904Z" fill="#EE8788"></path><path d="M500.979 105.913C497.615 106.203 495.409 109.973 495.093 113.953C494.859 116.593 495.396 119.467 496.602 121.919C497.781 124.346 499.61 126.367 501.721 127.512C504.689 129.127 508.215 129.022 510.333 126.647C511.885 124.87 512.383 122.193 512.14 119.417C511.664 113.004 506.533 105.528 500.994 105.913H500.976H500.979Z" fill="#EE8788"></path></svg>